<?xml version="1.0" standalone="no"?>
<!DOCTYPE svg PUBLIC "-//W3C//DTD SVG 20010904//EN"
 "http://www.w3.org/TR/2001/REC-SVG-20010904/DTD/svg10.dtd">
<svg version="1.0" xmlns="http://www.w3.org/2000/svg"
 width="784.000000pt" height="784.000000pt" viewBox="0 0 784.000000 784.000000"
 preserveAspectRatio="xMidYMid meet">
<metadata>
Created by potrace 1.14, written by Peter Selinger 2001-2017
</metadata>
<g transform="translate(0.000000,784.000000) scale(0.100000,-0.100000)"
fill="#000000" stroke="none">
<path d="M3697 7764 c-2 -2 -44 -6 -93 -9 -49 -3 -107 -8 -129 -10 -22 -3 -58
-8 -80 -11 -22 -2 -62 -9 -90 -14 -27 -5 -63 -11 -80 -14 -16 -2 -41 -7 -55
-10 -14 -3 -37 -8 -52 -11 -63 -11 -130 -28 -283 -69 -5 -2 -17 -5 -25 -8 -8
-3 -46 -16 -85 -28 -86 -26 -242 -85 -313 -116 -29 -13 -55 -24 -58 -24 -12 0
-312 -154 -393 -201 -84 -50 -311 -197 -321 -209 -3 -3 -45 -37 -95 -75 -135
-103 -195 -156 -350 -310 -162 -162 -202 -205 -305 -335 -41 -52 -78 -96 -82
-98 -5 -2 -8 -8 -8 -14 0 -5 -7 -16 -15 -25 -22 -22 -185 -271 -185 -283 0 -5
-3 -10 -7 -10 -5 0 -17 -19 -28 -43 -11 -23 -23 -44 -26 -47 -9 -8 -101 -188
-99 -196 1 -4 -2 -10 -7 -13 -14 -10 -158 -341 -167 -386 -2 -5 -22 -68 -45
-140 -35 -110 -55 -182 -87 -320 -4 -18 -25 -124 -38 -195 -5 -25 -13 -86 -22
-150 -2 -19 -6 -49 -9 -66 -25 -172 -25 -685 0 -861 3 -21 8 -56 10 -78 5 -45
6 -56 41 -255 3 -14 7 -33 10 -42 3 -10 7 -30 10 -45 7 -40 34 -155 41 -173 3
-8 7 -19 8 -25 5 -21 46 -161 52 -175 3 -8 7 -19 8 -25 2 -5 15 -41 30 -80 15
-38 28 -74 29 -80 2 -5 8 -23 16 -40 7 -16 16 -39 21 -50 49 -122 187 -395
230 -457 11 -14 19 -30 19 -35 1 -8 90 -148 110 -170 6 -7 8 -13 5 -13 -3 0 6
-12 20 -27 14 -15 25 -33 25 -40 0 -6 3 -13 8 -15 4 -2 27 -30 51 -63 25 -33
57 -76 73 -95 16 -19 37 -44 46 -56 100 -123 315 -345 437 -451 33 -28 71 -62
85 -74 89 -77 419 -309 440 -309 5 0 10 -4 10 -10 0 -5 4 -10 9 -10 5 0 35
-16 67 -35 176 -107 616 -303 759 -339 6 -1 30 -9 55 -16 25 -7 50 -15 55 -16
6 -1 25 -7 43 -13 17 -5 32 -7 32 -4 0 3 6 0 14 -6 7 -6 26 -13 42 -15 16 -2
57 -11 92 -19 34 -8 65 -16 67 -16 3 -1 6 -1 8 -2 1 0 11 -2 22 -3 16 -2 95
-17 115 -21 10 -2 126 -18 155 -21 17 -2 50 -7 75 -11 57 -10 700 -10 800 -1
73 7 98 10 190 24 25 4 54 8 65 9 21 3 65 12 100 19 11 2 56 12 100 21 78 16
355 94 405 113 14 5 30 11 35 12 129 34 543 229 712 337 29 18 56 33 62 33 5
0 11 3 13 8 2 4 55 42 118 84 107 73 224 162 351 268 57 48 318 306 359 355
14 17 48 57 76 90 70 82 211 270 229 306 9 16 20 29 25 29 6 0 10 5 10 10 0 6
20 41 43 78 90 138 244 429 272 512 1 3 8 19 15 35 7 17 14 32 15 35 1 3 7 19
14 35 19 45 82 218 86 235 2 8 8 27 14 43 6 15 13 38 16 50 2 12 16 63 30 112
14 50 30 110 35 135 5 25 12 56 15 70 2 14 7 36 10 50 13 60 26 138 30 175 3
28 7 58 20 140 25 163 25 695 0 860 -2 17 -7 53 -10 80 -3 28 -13 91 -21 140
-20 122 -21 124 -33 175 -7 25 -13 57 -16 71 -2 15 -11 52 -20 84 -10 32 -18
63 -19 69 -6 29 -28 103 -36 121 -7 16 -51 146 -55 165 -1 3 -7 19 -14 35 -6
17 -17 44 -23 60 -6 17 -22 54 -35 83 -12 29 -23 55 -23 58 0 16 -167 337
-217 416 -12 21 -23 42 -23 48 0 5 -4 10 -8 10 -5 0 -15 12 -23 28 -7 15 -32
53 -54 86 -22 32 -44 66 -50 75 -11 18 -127 173 -135 181 -3 3 -25 30 -50 60
-69 86 -95 114 -250 269 -148 148 -159 158 -265 246 -33 28 -65 55 -71 60 -6
6 -27 21 -47 35 -20 14 -37 28 -37 33 0 4 -6 7 -12 7 -7 0 -26 12 -43 28 -16
15 -42 33 -57 41 -15 8 -36 21 -46 30 -20 18 -18 16 -152 98 -323 197 -648
334 -1030 437 -52 14 -106 27 -120 30 -14 3 -36 7 -50 11 -14 3 -38 7 -55 10
-16 3 -52 9 -80 15 -27 6 -72 13 -100 16 -27 3 -57 8 -65 10 -8 3 -44 8 -80
10 -36 3 -85 8 -110 10 -54 6 -538 13 -543 8z m478 -588 c50 -4 101 -9 115
-11 54 -8 97 -14 145 -21 52 -6 73 -10 115 -19 14 -3 34 -7 45 -9 11 -3 43
-10 70 -16 28 -6 57 -13 65 -15 8 -1 35 -9 60 -16 25 -7 50 -13 55 -14 6 -2
65 -21 132 -43 211 -72 447 -180 626 -289 106 -64 253 -163 286 -192 13 -11
27 -21 30 -21 3 0 23 -15 43 -33 20 -17 46 -39 56 -47 106 -81 347 -321 439
-437 15 -19 38 -47 51 -62 12 -14 58 -78 102 -141 44 -63 84 -120 90 -127 5
-7 10 -15 10 -17 0 -3 15 -30 34 -59 55 -85 186 -343 179 -350 -3 -4 -1 -7 5
-7 7 0 11 -3 10 -7 -1 -5 8 -30 20 -57 12 -27 22 -50 22 -52 0 -1 4 -13 9 -26
5 -13 10 -27 11 -33 1 -5 7 -19 13 -30 6 -11 12 -24 13 -30 1 -5 16 -53 32
-105 50 -153 99 -360 116 -485 3 -22 8 -51 10 -65 3 -14 8 -52 11 -85 37 -388
17 -746 -57 -1065 -11 -47 -22 -96 -24 -110 -3 -14 -12 -50 -22 -80 -9 -30
-16 -57 -17 -60 0 -3 -13 -43 -29 -90 -169 -507 -456 -959 -843 -1333 -114
-109 -111 -106 -168 -152 -28 -22 -52 -42 -55 -45 -36 -40 -294 -213 -460
-311 -23 -13 -251 -125 -290 -142 -88 -39 -293 -114 -330 -122 -8 -2 -35 -10
-60 -19 -25 -8 -57 -17 -72 -20 -15 -2 -31 -7 -35 -9 -5 -3 -64 -16 -133 -30
-114 -23 -168 -32 -255 -43 -16 -2 -43 -6 -60 -8 -199 -31 -668 -20 -875 20
-14 2 -43 7 -65 10 -22 4 -69 13 -105 21 -36 7 -76 16 -90 19 -14 3 -54 13
-90 24 -36 10 -74 20 -85 22 -11 2 -22 5 -25 8 -3 3 -57 22 -120 44 -63 21
-130 44 -147 52 -83 35 -114 50 -200 90 -91 44 -207 107 -273 148 -65 41 -215
140 -220 146 -3 3 -32 25 -65 50 -33 25 -65 50 -72 55 -6 6 -33 28 -59 50
-119 98 -304 284 -401 401 -89 109 -126 159 -197 264 -77 116 -89 135 -143
225 -47 79 -148 290 -193 405 -111 278 -173 526 -215 860 -23 184 -23 561 -1
715 3 17 7 54 11 84 3 30 8 64 10 75 2 12 7 35 9 51 15 94 76 351 100 420 2 6
4 13 5 17 1 4 15 45 32 90 17 46 31 88 33 93 1 6 12 32 24 59 12 27 22 50 22
53 0 24 206 414 222 421 5 2 8 9 8 16 0 7 11 26 25 42 14 16 25 35 25 42 0 6
5 12 10 12 6 0 10 5 10 10 0 10 129 190 159 222 9 9 22 24 30 34 161 192 257
287 471 468 57 48 275 206 285 206 2 0 24 14 48 30 25 17 49 30 55 30 6 0 12
4 14 10 3 11 338 183 338 174 0 -4 6 -1 14 5 11 10 225 95 266 106 8 3 47 14
85 26 110 33 243 68 285 74 14 2 36 7 50 10 30 7 52 11 155 25 44 6 91 13 105
15 14 2 72 7 130 10 58 4 106 8 107 9 5 4 304 -2 388 -8z"/>
<path d="M1596 5955 c-72 -14 -140 -57 -177 -111 -37 -54 -50 -92 -54 -159 -2
-27 -5 -52 -5 -55 -1 -3 -1 -25 -1 -50 2 -43 2 -54 0 -82 0 -7 1 -32 3 -55 2
-24 1 -43 -2 -43 -3 0 -4 -21 -2 -47 1 -27 3 -54 2 -60 0 -7 0 -19 0 -25 -1
-7 1 -34 2 -61 2 -26 1 -47 -2 -47 -3 0 -4 -24 -2 -52 2 -29 3 -59 3 -65 -1
-7 -1 -19 -2 -25 0 -7 1 -32 3 -55 2 -24 1 -43 -2 -43 -3 0 -4 -21 -2 -47 1
-27 3 -54 2 -60 0 -7 0 -19 0 -25 -1 -7 1 -34 2 -61 2 -26 1 -47 -2 -47 -3 0
-4 -24 -2 -52 2 -29 3 -59 3 -65 -1 -7 -1 -19 -2 -25 0 -7 1 -32 3 -55 2 -24
1 -43 -2 -43 -3 0 -4 -21 -2 -47 1 -27 3 -54 2 -60 0 -7 0 -19 0 -25 -1 -7 1
-34 2 -61 2 -26 1 -47 -2 -47 -3 0 -4 -24 -2 -52 2 -29 3 -60 2 -68 0 -8 0
-24 0 -35 1 -11 1 -27 0 -35 0 -8 0 -24 0 -35 1 -11 1 -26 1 -32 -1 -7 -1 -21
-1 -30 0 -10 0 -31 -1 -48 0 -16 0 -39 1 -50 1 -11 1 -27 0 -35 0 -8 0 -24 0
-35 1 -21 1 -24 1 -70 -1 -16 -1 -38 -1 -47 0 -10 0 -26 0 -35 0 -10 0 -31 -1
-48 0 -16 0 -39 1 -50 1 -11 1 -26 1 -32 -1 -7 -1 -21 -1 -30 0 -10 0 -31 -1
-48 0 -16 0 -39 1 -50 1 -11 1 -26 1 -32 -1 -7 -1 -21 -1 -30 0 -10 0 -31 -1
-48 0 -16 0 -39 1 -50 1 -11 1 -26 1 -32 -1 -7 -1 -21 -1 -30 0 -10 0 -31 -1
-48 0 -16 0 -39 1 -50 1 -11 1 -26 1 -32 -1 -7 -1 -21 -1 -30 0 -10 0 -31 -1
-48 0 -16 0 -39 1 -50 1 -11 1 -26 1 -32 -1 -7 -1 -19 -2 -25 0 -7 1 -37 3
-66 2 -28 1 -52 -2 -52 -7 0 -3 -90 3 -97 3 -3 2 -15 -3 -28 -5 -13 -6 -26 -3
-29 4 -3 8 -26 9 -50 7 -115 104 -224 224 -252 57 -13 4495 -12 4561 2 100 20
162 69 207 164 l26 55 1 1640 c1 902 -1 1645 -4 1650 -4 6 -13 28 -20 50 -8
21 -27 53 -42 70 -16 16 -29 33 -29 36 0 8 -100 58 -131 65 -45 11 -4507 10
-4563 -1z m505 -616 c71 2 68 2 139 2 36 -1 72 -1 80 0 8 0 44 0 80 0 36 -1
72 0 80 0 8 0 749 0 1647 0 l1632 -1 0 -213 c1 -257 1 -279 -2 -390 -1 -48 1
-87 5 -87 4 0 5 -7 2 -15 -9 -22 -10 -225 -2 -225 4 0 5 -7 2 -15 -10 -24 -10
-225 -1 -225 5 0 5 -5 2 -11 -4 -6 -7 -126 -6 -267 1 -287 1 -311 -2 -435 -1
-48 1 -87 5 -87 4 0 5 -7 2 -15 -10 -24 -10 -225 -1 -225 5 0 5 -5 1 -11 -6
-10 -9 -199 -4 -224 1 -5 2 -20 1 -33 -1 -20 -6 -22 -58 -22 -32 0 -65 -1 -73
-1 -8 0 -24 0 -35 1 -19 1 -378 2 -400 2 -17 -1 -69 -2 -90 -1 -32 0 -379 1
-390 1 -17 -1 -69 -2 -90 -1 -32 0 -379 1 -390 1 -17 -1 -69 -2 -90 -1 -32 0
-379 1 -390 1 -17 -1 -69 -2 -90 -1 -32 0 -379 1 -390 1 -17 -1 -69 -2 -90 -1
-32 0 -379 1 -390 1 -17 -1 -69 -2 -90 -1 -71 1 -394 1 -425 0 -14 -1 -41 -1
-61 -1 -21 0 -41 0 -45 -1 -5 -1 -48 -1 -96 0 l-88 1 0 1249 0 1250 23 3 c12
2 26 2 31 0 4 -3 30 -4 57 -3z"/>
<path d="M4648 4866 c-46 -19 -116 -85 -538 -505 -267 -266 -494 -487 -505
-491 -11 -4 -28 -4 -38 -1 -10 4 -105 93 -211 198 -106 105 -212 201 -234 212
-52 27 -125 32 -182 13 -49 -17 -57 -22 -106 -69 -76 -74 -101 -190 -59 -278
28 -58 679 -709 731 -731 41 -18 124 -25 124 -11 0 4 4 6 9 3 5 -3 25 5 44 19
58 39 1256 1236 1283 1281 40 68 45 137 17 217 -47 131 -202 197 -335 143z"/>
<path d="M3297 1844 c-2 -3 -113 -5 -245 -5 -222 -1 -243 -2 -279 -21 -151
-80 -181 -306 -57 -432 66 -66 -8 -62 1166 -61 1008 1 1065 1 1097 19 176 94
176 373 1 476 -24 14 -131 22 -260 19 -82 -1 -215 -1 -226 2 -5 1 -13 0 -19
-1 -5 -1 -39 -1 -75 0 -36 1 -74 1 -85 1 -11 0 -56 0 -100 -1 -44 0 -105 -1
-135 -1 -30 0 -93 0 -140 1 -47 1 -94 1 -105 1 -11 0 -56 0 -100 -1 -44 0
-105 -1 -135 -1 -30 0 -61 0 -67 0 -18 1 -38 1 -130 0 -45 -1 -86 2 -91 5 -5
3 -12 3 -15 0z"/>
</g>
</svg>
