<svg width="196" height="195" xmlns="http://www.w3.org/2000/svg" class="fl-svgdocument">
 <g>
  <path id="_0jdQD07NULSEAxiaxZPOE" d="m98,1.27659c-53.54718,0 -96.95497,43.40779 -96.95497,96.95497c0,53.54608 43.40779,96.95497 96.95497,96.95497c53.54608,0 96.95497,-43.40889 96.95497,-96.95497c-0.0011,-53.54718 -43.40999,-96.95497 -96.95497,-96.95497zm0,179.32284c-45.49057,0 -82.36787,-36.8784 -82.36787,-82.36787c0,-45.49057 36.8762,-82.36787 82.36787,-82.36787c45.48947,0 82.36787,36.8762 82.36787,82.36787c-0.0011,45.48947 -36.8795,82.36787 -82.36787,82.36787z" fill="#1c9954" data-uid="o_ejkfi7f93_7"/>
  <g stroke="null" id="_36D3Fpvw8BhKXlW5C9wVS" data-uid="o_ejkfi7f93_10">
   <path stroke="null" id="_DM-25yiJOpjY_yesepP-5" d="m151.82367,46.38424l-109.96545,0c-4.71281,0 -7.85468,3.12451 -7.85468,7.81128l0,78.11277c0,4.68677 3.14187,7.81128 7.85468,7.81128l109.96545,0c4.71281,0 7.85468,-3.12451 7.85468,-7.81128l0,-78.11277c0,-4.68677 -3.14187,-7.81128 -7.85468,-7.81128zm-7.85468,78.11277l-94.2561,0l0,-62.49022l94.2561,0l0,62.49022z" fill="#1d2936" data-uid="o_ejkfi7f93_11"/>
   <path stroke="null" id="_rO_PbUmBbAggpYK0ds17q" d="m122.36603,162.4129l-50.94933,0c-3.01623,0 -5.48403,-2.90287 -5.48403,-6.4505c0,-3.54763 2.4678,-6.45022 5.48403,-6.45022l50.94933,0c3.01647,0 5.48427,2.90272 5.48427,6.45022c0,3.54763 -2.46804,6.4505 -5.48427,6.4505" fill="#1d2936" data-uid="o_ejkfi7f93_12"/>
   <path stroke="null" id="_PwCsJ5XFgxHZ2ZBYDqqYB" d="m118.43317,73.311c5.90114,-0.14671 8.8517,6.89552 4.64714,11.00349l-30.09579,29.92951c-1.84411,1.83392 -4.9422,1.83392 -6.78631,0l-15.26919,-15.25818c-6.34372,-6.01525 3.02433,-15.33154 9.07299,-9.02286l8.48288,8.43601c0.59011,0.58685 1.62281,0.58685 2.28669,0l23.23572,-23.10734c1.18023,-1.24706 2.72928,-1.90727 4.42585,-1.98063l0,0l0.00001,0z" fill="#1c9954" data-uid="o_ejkfi7f93_13"/>
  </g>
 </g>
</svg>